<svg width="72" height="37" viewBox="0 0 72 37" fill="none" xmlns="http://www.w3.org/2000/svg">
<path d="M41.2166 18.3377C41.2166 15.61 37.8254 13.0256 32.6267 11.4226C33.826 6.0845 33.2927 1.83811 30.9431 0.478184C30.4021 0.159683 29.7688 0.00867704 29.077 0.00867704V1.87976C29.4604 1.87976 29.7688 1.95527 30.0273 2.09846C31.1603 2.75282 31.6514 5.24529 31.2688 8.45112C31.1766 9.24 31.0267 10.0714 30.8432 10.9184C29.2105 10.5157 27.427 10.205 25.5531 10.0037C24.4279 8.45112 23.2613 7.04173 22.087 5.80765C24.8027 3.26485 27.3521 1.87195 29.0856 1.87195V0C26.7947 0 23.7946 1.64457 20.7619 4.49807C17.7291 1.66193 14.73 0.0338441 12.4382 0.0338441V1.90493C14.1631 1.90493 16.7211 3.29002 19.4377 5.81633C18.2711 7.04955 17.1045 8.45112 15.9965 10.0037C14.1131 10.205 12.3305 10.5157 10.697 10.9271C10.5057 10.0879 10.3635 9.27384 10.2636 8.49365C9.87243 5.28694 10.3558 2.79448 11.4801 2.13144C11.73 1.98043 12.0557 1.91361 12.4382 1.91361V0.0416571C11.7386 0.0416571 11.1054 0.193531 10.5557 0.512032C8.21476 1.87195 7.6892 6.10966 8.89799 11.4305C3.71561 13.042 0.34082 15.6187 0.34082 18.3377C0.34082 21.0653 3.73198 23.6498 8.93073 25.2527C7.73142 30.5908 8.26474 34.8372 10.6143 36.1972C11.1553 36.5157 11.7886 36.6667 12.4882 36.6667C14.78 36.6667 17.7791 35.0221 20.8119 32.1686C23.8446 35.0047 26.8446 36.6328 29.1356 36.6328C29.8352 36.6328 30.4684 36.4818 31.0181 36.1633C33.3599 34.8034 33.8846 30.5657 32.6766 25.2449C37.8418 23.642 41.2166 21.0566 41.2166 18.3377ZM30.3685 12.74C30.06 13.8222 29.6766 14.9383 29.2441 16.0552C28.9021 15.3835 28.5437 14.7118 28.1525 14.0409C27.7691 13.3692 27.3607 12.7149 26.9523 12.077C28.1353 12.2532 29.2769 12.471 30.3685 12.74ZM26.5525 21.678C25.9029 22.8106 25.2361 23.885 24.5451 24.8839C23.3035 24.9932 22.0448 25.0514 20.7791 25.0514C19.5204 25.0514 18.2625 24.9932 17.0295 24.8925C16.3377 23.8936 15.6631 22.8279 15.0135 21.7032C14.3802 20.6036 13.8047 19.4876 13.28 18.3628C13.7969 17.2381 14.3802 16.1134 15.0048 15.0138C15.6545 13.8813 16.3213 12.8069 17.0123 11.808C18.2538 11.6995 19.5126 11.6405 20.7791 11.6405C22.037 11.6405 23.2949 11.6995 24.5278 11.8002C25.2197 12.7982 25.8943 13.8648 26.5439 14.9886C27.1772 16.0882 27.7527 17.2043 28.2774 18.329C27.7527 19.4537 27.1772 20.5785 26.5525 21.678ZM29.2441 20.5871C29.6939 21.711 30.0773 22.8357 30.3935 23.9266C29.3018 24.1957 28.1525 24.4222 26.9609 24.5983C27.3693 23.9518 27.7777 23.2888 28.1603 22.6092C28.5437 21.9384 28.9021 21.258 29.2441 20.5871ZM20.7955 29.5416C20.0201 28.7363 19.2455 27.838 18.4787 26.8556C19.2292 26.8895 19.9951 26.9146 20.7705 26.9146C21.5537 26.9146 22.3282 26.8981 23.0864 26.8556C22.3369 27.838 21.5623 28.7363 20.7955 29.5416ZM14.5965 24.5983C13.4135 24.4222 12.2719 24.2043 11.1803 23.9353C11.4888 22.8531 11.8722 21.7362 12.3055 20.6201C12.6467 21.2918 13.0051 21.9635 13.3971 22.6344C13.7883 23.3061 14.1881 23.9605 14.5965 24.5983ZM20.7533 7.13373C21.5287 7.93909 22.3033 8.83732 23.0701 9.81886C22.3205 9.78588 21.5537 9.76071 20.7791 9.76071C19.9951 9.76071 19.2205 9.7772 18.4624 9.81886C19.2119 8.83732 19.9873 7.93909 20.7533 7.13373ZM14.5878 12.077C14.1803 12.7227 13.7719 13.3857 13.3885 14.0661C13.0051 14.737 12.6467 15.4087 12.3055 16.0804C11.8549 14.9557 11.4724 13.8309 11.1553 12.74C12.2469 12.4797 13.3971 12.2532 14.5878 12.077ZM7.04819 22.5841C4.09815 21.317 2.19062 19.6551 2.19062 18.3377C2.19062 17.0203 4.09815 15.3497 7.04819 14.0913C7.76416 13.7806 8.54733 13.5037 9.35549 13.2434C9.83108 14.888 10.4557 16.6002 11.2303 18.3542C10.4643 20.1003 9.84745 21.8039 9.38048 23.4406C8.55595 23.1803 7.77278 22.8948 7.04819 22.5841ZM11.5301 34.5769C10.3971 33.9225 9.90604 31.4301 10.2886 28.2242C10.3808 27.4353 10.5307 26.6039 10.7142 25.7569C12.3469 26.1596 14.1303 26.4703 16.0043 26.6716C17.1295 28.2242 18.2961 29.6336 19.4704 30.8677C16.7547 33.4105 14.2053 34.8034 12.4718 34.8034C12.097 34.7956 11.78 34.7201 11.5301 34.5769ZM31.2938 28.1817C31.685 31.3875 31.2016 33.8809 30.0773 34.543C29.8274 34.6949 29.5017 34.7617 29.1192 34.7617C27.3943 34.7617 24.8363 33.3766 22.1197 30.8512C23.2863 29.6171 24.4529 28.2155 25.5609 26.663C27.4443 26.4616 29.2269 26.1509 30.8604 25.7396C31.0517 26.5875 31.2016 27.4015 31.2938 28.1817ZM34.5015 22.5841C33.7846 22.8948 33.0014 23.1716 32.1933 23.432C31.7186 21.7865 31.0931 20.0751 30.3185 18.3212C31.0853 16.5751 31.7013 14.8715 32.1683 13.2347C32.9928 13.4951 33.776 13.7806 34.5092 14.0913C37.4592 15.3583 39.3668 17.0203 39.3668 18.3377C39.359 19.6551 37.4506 21.3257 34.5015 22.5841Z" fill="#58C4DC"/>
<path d="M20.7702 22.1729C22.873 22.1729 24.5778 20.4558 24.5778 18.3376C24.5778 16.2193 22.873 14.5022 20.7702 14.5022C18.6673 14.5022 16.9625 16.2193 16.9625 18.3376C16.9625 20.4558 18.6673 22.1729 20.7702 22.1729Z" fill="#58C4DC"/>
<path d="M53.8295 18.1485V33.8462H51.4687V18.1485H53.8295ZM51.2697 13.8943C51.2697 13.3499 51.4024 12.9513 51.6678 12.6984C51.9331 12.4456 52.2651 12.3192 52.6637 12.3192C53.0428 12.3192 53.3697 12.4479 53.6442 12.7054C53.9193 12.9634 54.0569 13.3597 54.0569 13.8943C54.0569 14.4289 53.9193 14.8276 53.6442 15.0902C53.3697 15.3529 53.0428 15.4842 52.6637 15.4842C52.2651 15.4842 51.9331 15.3529 51.6678 15.0902C51.4024 14.8276 51.2697 14.4289 51.2697 13.8943ZM69.7548 33.8462L69.4421 31.7408H69.3146C68.2244 33.3353 66.5937 34.1326 64.4225 34.1326C62.3846 34.1326 60.7993 33.4308 59.6666 32.0272C58.534 30.6236 57.9676 28.6281 57.9676 26.0408C57.9676 23.4528 58.5362 21.4426 59.6735 20.0101C60.8114 18.5781 62.3944 17.8621 64.4225 17.8621C66.5368 17.8621 68.158 18.6354 69.2861 20.1819H69.4705L69.3714 19.0511L69.3146 17.9481V11.5598H71.6744V33.8462H69.7548ZM64.7215 32.1418C66.3332 32.1418 67.5015 31.7003 68.2264 30.8174C68.9518 29.9339 69.3146 28.5086 69.3146 26.5415V26.0408C69.3146 23.8156 68.9472 22.228 68.2126 21.278C67.478 20.328 66.3048 19.853 64.6931 19.853C63.3088 19.853 62.2494 20.3948 61.5147 21.4785C60.7801 22.5621 60.4128 24.0924 60.4128 26.0694C60.4128 28.0741 60.7778 29.5874 61.5078 30.6091C62.2379 31.6309 63.3091 32.1418 64.7215 32.1418ZM43.3785 32.3283C43.3785 31.6884 43.523 31.2039 43.8119 30.8747C44.1008 30.5449 44.5155 30.38 45.056 30.38C45.6057 30.38 46.0348 30.5449 46.3432 30.8747C46.6511 31.2039 46.805 31.6884 46.805 32.3283C46.805 32.9486 46.6485 33.4259 46.3355 33.7603C46.023 34.0947 45.5965 34.2619 45.056 34.2619C44.5724 34.2619 44.1718 34.1115 43.8541 33.8106C43.5371 33.5098 43.3785 33.0157 43.3785 32.3283Z" fill="#58C4DC"/>
</svg>
