<svg width="201" height="200" viewBox="0 0 201 200" fill="none" xmlns="http://www.w3.org/2000/svg">
<g clip-path="url(#clip0_816_262)">
<path fill-rule="evenodd" clip-rule="evenodd" d="M75.9554 105L75.8889 146.732C75.8806 152.74 75.8723 155.749 76.9941 158.449C78.1076 161.15 80.2308 163.273 84.4689 167.511L86.5048 169.547C93.0281 176.07 96.2897 179.332 100.353 179.324C104.404 179.32 107.674 176.05 114.222 169.501L116.254 167.47C120.509 163.215 122.64 161.083 123.762 158.383C124.884 155.682 124.892 152.674 124.897 146.662L124.963 104.929C124.971 97.9075 124.98 93.5531 123.721 90.6072C123.322 89.6765 122.807 88.8871 122.117 88.1973C119.25 85.3304 114.63 85.3387 105.385 85.3512L104.143 85.3554L104.251 100.039C104.258 101.044 103.865 102.012 103.159 102.728C102.453 103.444 101.492 103.85 100.486 103.857C99.4807 103.865 98.5135 103.472 97.7974 102.766C97.0813 102.06 96.675 101.099 96.6678 100.093L96.5639 85.3637L95.5834 85.372C86.3427 85.3886 81.7224 85.3886 78.8472 88.2638C78.2115 88.8995 77.7129 89.6225 77.3265 90.4576C75.9637 93.4076 75.9637 97.8036 75.9512 105.004M90.5974 139.287C90.6057 133.877 95.0017 129.481 100.416 129.468C101.702 129.465 102.976 129.717 104.165 130.207C105.354 130.698 106.435 131.419 107.344 132.329C108.254 133.238 108.975 134.319 109.466 135.508C109.957 136.697 110.208 137.971 110.205 139.258C110.192 144.671 105.8 149.063 100.386 149.076C94.9726 149.088 90.5891 144.705 90.5974 139.287ZM136.676 59.952C136.09 59.9523 135.509 59.8371 134.968 59.613C134.426 59.3889 133.934 59.0602 133.52 58.6457C133.105 58.2313 132.777 57.7392 132.552 57.1977C132.328 56.6561 132.213 56.0757 132.213 55.4896L132.218 54.1974C132.217 53.6687 132.006 53.162 131.632 52.7882C131.259 52.4143 130.752 52.2039 130.223 52.203C129.959 52.2018 129.698 52.2529 129.454 52.3533C129.21 52.4538 128.988 52.6016 128.801 52.7881C128.615 52.9747 128.467 53.1964 128.367 53.4405C128.266 53.6845 128.215 53.946 128.216 54.2099L128.204 68.4323C128.146 69.5771 127.65 70.6559 126.818 71.4451C125.987 72.2344 124.884 72.6737 123.738 72.6721C122.591 72.6705 121.489 72.2281 120.66 71.4365C119.831 70.645 119.338 69.5648 119.283 68.4198L119.291 54.2015C119.293 51.305 120.444 48.5275 122.493 46.4793C124.541 44.4311 127.318 43.2798 130.215 43.2782C131.65 43.2766 133.071 43.5581 134.397 44.1065C135.723 44.655 136.928 45.4595 137.942 46.4741C138.957 47.4888 139.761 48.6936 140.31 50.0195C140.858 51.3455 141.14 52.7666 141.138 54.2015L141.134 55.4937C141.132 56.6755 140.662 57.8084 139.826 58.644C138.99 59.4797 137.858 59.95 136.676 59.952ZM100.37 61.2317C97.906 61.2026 95.9324 59.1875 95.9615 56.7236L96.1193 42.5054C96.1608 41.3422 96.6554 40.2413 97.4975 39.4377C98.3395 38.6342 99.4624 38.1917 100.626 38.2047C101.79 38.2177 102.903 38.6852 103.727 39.5074C104.551 40.3295 105.02 41.4412 105.036 42.6051L104.878 56.8233C104.864 58.0056 104.382 59.1341 103.537 59.9608C102.691 60.7874 101.552 61.2446 100.37 61.2317ZM77.0772 72.7077C75.894 72.7068 74.7594 72.2364 73.9228 71.3997C73.0861 70.563 72.6157 69.4285 72.6148 68.2453L72.6272 54.0229C72.6263 53.4942 72.4159 52.9875 72.0421 52.6137C71.6683 52.2398 71.1615 52.0294 70.6329 52.0285C69.5235 52.0327 68.626 52.9301 68.6219 54.0395L68.6177 55.3317C68.5704 56.4822 68.0799 57.5697 67.2489 58.3668C66.418 59.1638 65.311 59.6087 64.1595 59.6081C63.0081 59.6076 61.9015 59.1617 61.0713 58.3639C60.2411 57.566 59.7517 56.478 59.7054 55.3275L59.7054 54.0395C59.7058 51.1415 60.8573 48.3623 62.9065 46.3131C64.9557 44.2639 67.7349 43.1125 70.6329 43.112C72.0678 43.1105 73.4889 43.3919 74.8149 43.9403C76.1408 44.4888 77.3456 45.2933 78.3603 46.308C79.3749 47.3226 80.1795 48.5274 80.7279 49.8533C81.2763 51.1793 81.5578 52.6004 81.5562 54.0353L81.5438 68.2577C81.5422 69.44 81.0713 70.5733 80.2346 71.4085C79.3978 72.2437 78.2595 72.7084 77.0772 72.7077Z" fill="#BCC4CE"/>
<path opacity="0.5" d="M132.517 122.87L132.55 104.722C132.554 101.385 132.554 98.3271 132.388 95.7345C132.292 94.0025 132.051 92.2818 131.665 90.5906L131.844 90.5865L132.508 90.5865C135.626 90.5396 138.705 89.8994 141.583 88.7001L142.198 88.4342L144.088 87.624C144.676 87.3695 145.319 87.2653 145.957 87.3207C146.596 87.376 147.21 87.5892 147.746 87.9411C148.282 88.293 148.722 88.7725 149.026 89.3366C149.33 89.9006 149.49 90.5314 149.49 91.1723C149.477 99.1623 149.465 108.764 148.106 112.051C146.936 114.912 145.012 117.402 142.538 119.256C140.295 120.918 137.44 121.761 132.517 122.87ZM69.2825 90.682C67.8034 90.6654 66.7937 90.628 65.7965 90.5117C64.4711 90.3496 63.1706 90.0796 61.8909 89.7056C60.4533 89.2901 59.0655 88.6918 56.2941 87.4993C54.038 86.5312 51.4703 88.2431 51.4703 90.7194L51.4661 91.3219C51.4536 99.3119 51.4412 108.914 52.7832 112.192C53.949 115.049 55.8691 117.535 58.3384 119.384C60.5738 121.038 63.4241 121.877 68.3435 122.974L68.3684 104.759C68.3726 101.348 68.3809 98.215 68.5762 95.5766C68.6785 93.9286 68.9147 92.2917 69.2825 90.682ZM107.616 71.7105C107.6 72.3061 107.704 72.8988 107.92 73.4537C108.137 74.0086 108.463 74.5145 108.879 74.9414C109.294 75.3683 109.791 75.7076 110.34 75.9393C110.889 76.171 111.479 76.2903 112.074 76.2903C112.67 76.2903 113.26 76.171 113.809 75.9393C114.358 75.7076 114.855 75.3683 115.27 74.9414C115.686 74.5145 116.011 74.0086 116.228 73.4537C116.445 72.8988 116.549 72.3061 116.533 71.7105L116.537 53.9066C116.537 53.3206 116.421 52.7403 116.197 52.1989C115.973 51.6575 115.644 51.1655 115.23 50.7512C114.815 50.3368 114.323 50.0081 113.782 49.7838C113.241 49.5596 112.66 49.4442 112.074 49.4442C111.488 49.4442 110.908 49.5596 110.367 49.7838C109.825 50.0081 109.333 50.3368 108.919 50.7512C108.505 51.1655 108.176 51.6575 107.952 52.1989C107.727 52.7403 107.612 53.3206 107.612 53.9066L107.616 71.7105ZM84.286 71.723C84.27 72.3186 84.3735 72.9113 84.5903 73.4662C84.8072 74.0211 85.133 74.5269 85.5486 74.9538C85.9642 75.3807 86.461 75.7201 87.0099 75.9517C87.5588 76.1834 88.1485 76.3028 88.7443 76.3028C89.3401 76.3028 89.9298 76.1834 90.4787 75.9517C91.0276 75.7201 91.5245 75.3807 91.94 74.9538C92.3556 74.5269 92.6814 74.0211 92.8983 73.4662C93.1151 72.9113 93.2186 72.3186 93.2026 71.723L93.2067 54.0437C93.1621 52.89 92.6725 51.7985 91.8405 50.998C91.0085 50.1976 89.8988 49.7505 88.7443 49.7505C87.5898 49.7505 86.4801 50.1976 85.6481 50.998C84.8161 51.7985 84.3265 52.89 84.2819 54.0437L84.286 71.723Z" fill="#BCC4CE"/>
</g>
<defs>
<clipPath id="clip0_816_262">
<rect width="141.024" height="141.024" fill="white" transform="translate(200.06 100.284) rotate(135)"/>
</clipPath>
</defs>
</svg>
