<svg width="108" height="55" viewBox="0 0 108 55" fill="none" xmlns="http://www.w3.org/2000/svg">
<g clip-path="url(#clip0_694_142)">
<path d="M62.1544 27.5065C62.1544 23.415 57.0676 19.5383 49.2695 17.134C51.0685 9.12674 50.2685 2.75716 46.7442 0.717276C45.9326 0.239525 44.9827 0.0130156 43.945 0.0130156V2.81965C44.5201 2.81965 44.9827 2.9329 45.3705 3.14769C47.0699 4.12923 47.8066 7.86793 47.2328 12.6767C47.0945 13.86 46.8696 15.1071 46.5943 16.3776C44.1453 15.7736 41.4701 15.3076 38.6592 15.0056C36.9714 12.6767 35.2215 10.5626 33.46 8.71148C37.5336 4.89727 41.3577 2.80793 43.9579 2.80793V0C40.5215 0 36.0215 2.46686 31.4724 6.7471C26.9233 2.4929 22.4245 0.0507662 18.9868 0.0507662V2.8574C21.5742 2.8574 25.4112 4.93503 29.486 8.7245C27.7362 10.5743 25.9863 12.6767 24.3243 15.0056C21.4992 15.3076 18.8253 15.7736 16.375 16.3906C16.0881 15.1318 15.8748 13.9108 15.7249 12.7405C15.1382 7.93041 15.8632 4.19171 17.5497 3.19716C17.9245 2.97065 18.413 2.87041 18.9868 2.87041V0.0624856C17.9374 0.0624856 16.9876 0.290296 16.163 0.768048C12.6517 2.80793 11.8633 9.16449 13.6765 17.1457C5.90295 19.5631 0.840759 23.428 0.840759 27.5065C0.840759 31.598 5.92751 35.4747 13.7256 37.8791C11.9267 45.8863 12.7266 52.2559 16.2509 54.2957C17.0625 54.7735 18.0124 55 19.0618 55C22.4995 55 26.9982 52.5331 31.5473 48.2529C36.0965 52.5071 40.5965 54.9492 44.0329 54.9492C45.0823 54.9492 46.0322 54.7227 46.8567 54.245C50.3693 52.2051 51.1564 45.8485 49.3445 37.8673C57.0922 35.463 62.1544 31.585 62.1544 27.5065ZM45.8822 19.1101C45.4196 20.7334 44.8445 22.4075 44.1957 24.0828C43.6826 23.0753 43.145 22.0677 42.5583 21.0614C41.9832 20.0538 41.3706 19.0723 40.758 18.1155C42.5324 18.3798 44.2448 18.7065 45.8822 19.1101ZM40.1583 32.517C39.1839 34.2159 38.1836 35.8275 37.1471 37.3258C35.2849 37.4898 33.3967 37.577 31.4982 37.577C29.6101 37.577 27.7232 37.4898 25.8739 37.3388C24.8361 35.8405 23.8242 34.2419 22.8497 32.5548C21.8998 30.9054 21.0365 29.2314 20.2495 27.5443C21.0249 25.8572 21.8998 24.1701 22.8368 22.5207C23.8112 20.8219 24.8115 19.2103 25.848 17.712C27.7103 17.5492 29.5984 17.4607 31.4982 17.4607C33.3851 17.4607 35.2719 17.5492 37.1213 17.7002C38.1591 19.1973 39.171 20.7972 40.1454 22.483C41.0953 24.1323 41.9586 25.8064 42.7457 27.4935C41.9586 29.1806 41.0953 30.8677 40.1583 32.517ZM44.1957 30.8807C44.8703 32.5665 45.4454 34.2536 45.9197 35.8899C44.2823 36.2935 42.5583 36.6333 40.7709 36.8975C41.3835 35.9277 41.9961 34.9331 42.5699 33.9138C43.145 32.9076 43.6826 31.887 44.1957 30.8807ZM31.5228 44.3124C30.3596 43.1044 29.1978 41.757 28.0476 40.2834C29.1733 40.3342 30.3222 40.372 31.4853 40.372C32.6601 40.372 33.8219 40.3472 34.9592 40.2834C33.8348 41.757 32.673 43.1044 31.5228 44.3124ZM22.2242 36.8975C20.4498 36.6333 18.7374 36.3065 17.1 35.903C17.5627 34.2796 18.1378 32.6043 18.7878 30.9302C19.2996 31.9377 19.8372 32.9453 20.4252 33.9516C21.012 34.9592 21.6116 35.9407 22.2242 36.8975ZM31.4595 10.7006C32.6226 11.9086 33.7844 13.256 34.9346 14.7283C33.8103 14.6788 32.6601 14.6411 31.4982 14.6411C30.3222 14.6411 29.1603 14.6658 28.0231 14.7283C29.1474 13.256 30.3105 11.9086 31.4595 10.7006ZM22.2113 18.1155C21.6 19.084 20.9874 20.0786 20.4123 21.0992C19.8372 22.1054 19.2996 23.113 18.7878 24.1206C18.1119 22.4335 17.5381 20.7464 17.0625 19.1101C18.6999 18.7195 20.4252 18.3798 22.2113 18.1155ZM10.9018 33.8761C6.47676 31.9755 3.61546 29.4826 3.61546 27.5065C3.61546 25.5304 6.47676 23.0245 10.9018 21.1369C11.9758 20.6709 13.1505 20.2556 14.3628 19.8651C15.0762 22.3319 16.0131 24.9004 17.1749 27.5312C16.026 30.1504 15.1007 32.7058 14.4002 35.1609C13.1635 34.7704 11.9887 34.3421 10.9018 33.8761ZM17.6247 51.8653C15.9252 50.8838 15.1886 47.1451 15.7624 42.3363C15.9007 41.153 16.1256 39.9059 16.4008 38.6354C18.8499 39.2394 21.525 39.7054 24.3359 40.0075C26.0238 42.3363 27.7736 44.4504 29.5351 46.3015C25.4616 50.1157 21.6375 52.2051 19.0372 52.2051C18.4751 52.1934 17.9995 52.0801 17.6247 51.8653ZM47.2702 42.2725C47.857 47.0813 47.132 50.8213 45.4454 51.8146C45.0706 52.0424 44.5821 52.1426 44.0083 52.1426C41.421 52.1426 37.584 50.065 33.5091 46.2768C35.259 44.4257 37.0089 42.3233 38.6708 39.9944C41.496 39.6924 44.1698 39.2264 46.6202 38.6093C46.9071 39.8812 47.132 41.1022 47.2702 42.2725ZM52.0817 33.8761C51.0065 34.3421 49.8317 34.7574 48.6195 35.1479C47.9074 32.6798 46.9691 30.1127 45.8073 27.4818C46.9575 24.8626 47.8815 22.3072 48.582 19.8521C49.8188 20.2426 50.9935 20.6709 52.0933 21.1369C56.5184 23.0375 59.3797 25.5304 59.3797 27.5065C59.368 29.4826 56.5055 31.9885 52.0817 33.8761Z" fill="#58C4DC"/>
<path d="M31.4851 33.2595C34.6394 33.2595 37.1965 30.6838 37.1965 27.5065C37.1965 24.3291 34.6394 21.7534 31.4851 21.7534C28.3307 21.7534 25.7736 24.3291 25.7736 27.5065C25.7736 30.6838 28.3307 33.2595 31.4851 33.2595Z" fill="#58C4DC"/>
<path d="M81.0734 27.2227V50.7692H77.5324V27.2227H81.0734ZM77.2338 20.8414C77.2338 20.0247 77.4328 19.4268 77.8309 19.0475C78.2289 18.6683 78.7269 18.4787 79.3249 18.4787C79.8935 18.4787 80.3837 18.6717 80.7956 19.0579C81.2083 19.445 81.4146 20.0395 81.4146 20.8414C81.4146 21.6433 81.2083 22.2412 80.7956 22.6352C80.3837 23.0292 79.8935 23.2262 79.3249 23.2262C78.7269 23.2262 78.2289 23.0292 77.8309 22.6352C77.4328 22.2412 77.2338 21.6433 77.2338 20.8414ZM104.962 50.7692L104.492 47.6111H104.301C102.666 50.0029 100.22 51.1988 96.9631 51.1988C93.9062 51.1988 91.5282 50.1461 89.8292 48.0407C88.1302 45.9353 87.2807 42.942 87.2807 39.061C87.2807 35.1791 88.1336 32.1638 89.8395 30.015C91.5463 27.8671 93.9208 26.7931 96.9631 26.7931C100.135 26.7931 102.566 27.953 104.258 30.2727H104.535L104.386 28.5765L104.301 26.922V17.3396H107.841V50.7692H104.962ZM97.4115 48.2125C99.8291 48.2125 101.582 47.5503 102.669 46.226C103.757 44.9008 104.301 42.7628 104.301 39.8121V39.061C104.301 35.7233 103.75 33.3419 102.648 31.9169C101.546 30.4919 99.7864 29.7794 97.3689 29.7794C95.2925 29.7794 93.7033 30.5921 92.6013 32.2176C91.4994 33.8431 90.9484 36.1385 90.9484 39.104C90.9484 42.1111 91.4959 44.3809 92.591 45.9136C93.6861 47.4462 95.2929 48.2125 97.4115 48.2125ZM65.3971 48.4924C65.3971 47.5325 65.6137 46.8057 66.0471 46.3119C66.4805 45.8172 67.1026 45.5699 67.9133 45.5699C68.7378 45.5699 69.3814 45.8172 69.8441 46.3119C70.3059 46.8057 70.5368 47.5325 70.5368 48.4924C70.5368 49.4227 70.302 50.1387 69.8325 50.6403C69.3638 51.1419 68.724 51.3927 67.9133 51.3927C67.1878 51.3927 66.5869 51.1671 66.1104 50.7158C65.6349 50.2645 65.3971 49.5234 65.3971 48.4924Z" fill="#58C4DC"/>
</g>
<defs>
<clipPath id="clip0_694_142">
<rect width="107" height="55" fill="white" transform="translate(0.840759)"/>
</clipPath>
</defs>
</svg>
